<?xml version="1.0" encoding="UTF-8"?>
<svg xmlns="http://www.w3.org/2000/svg" width="108" height="108" xmlns:xlink="http://www.w3.org/1999/xlink" viewBox="0 0 108 108">
  <defs>
    <linearGradient id="a" x1="38.32" y1="86.2" x2="38.32" y2="21.8" gradientUnits="userSpaceOnUse">
      <stop offset=".5" stop-color="#9d6960"/>
      <stop offset=".5" stop-color="#887443"/>
    </linearGradient>
    <linearGradient id="b" x1="54.31" y1="67.66" x2="81.63" y2="40.34" gradientUnits="userSpaceOnUse">
      <stop offset=".45" stop-color="#5f7e5f"/>
      <stop offset=".45" stop-color="#697596"/>
    </linearGradient>
  </defs>
  <rect width="108" height="108" fill="#303030"/>
  <circle cx="54" cy="54" r="33" fill="none"/>
  <path d="M30.47,43.25c-.23.35-.13.8.19,1.03l6.34,4.73c-.26.8-.45,1.61-.55,2.41s-.16,1.67-.16,2.58.06,1.71.16,2.51.29,1.61.55,2.41l-6.34,4.8c-.32.23-.42.68-.23,1.03l2.45,4.25c.19.35.64.48,1,.32l7.31-3.09c1.19,1.22,2.51,2.25,3.93,3.09s2.96,1.48,4.6,1.9l.97,7.82c.06.42.39.71.8.71h2.51v6.44h-6.02c-1.61,0-2.99-1.22-3.19-2.83l-.93-7.47c-.71-.26-1.35-.58-1.96-.97s-1.22-.77-1.84-1.19l-6.95,2.9c-1.48.64-3.22.06-4.02-1.35l-6.02-10.37c-.8-1.42-.45-3.19.84-4.19l6.02-4.54c-.03-.39-.06-.74-.06-1.09v-2.19c0-.35.03-.71.06-1.09l-6.02-4.54c-1.29-1-1.64-2.77-.84-4.19l6.02-10.37c.8-1.42,2.54-2,4.02-1.35l6.95,2.9c.61-.42,1.22-.8,1.87-1.19s1.29-.71,1.93-.97l.93-7.47c.19-1.61,1.58-2.83,3.19-2.83h6.02v6.44h-2.45c-.39,0-.74.29-.77.71l-1.06,7.82c-1.64.42-3.19,1.06-4.6,1.9s-2.74,1.84-3.93,2.99l-7.31-3.03c-.35-.13-.8,0-1,.35l-2.41,4.25Z" fill="url(#a)"/>
  <path d="M48.77,62.13l-5.32-5.32c-.77-.77-1.16-1.7-1.16-2.8,0-1.1.39-2.03,1.16-2.8l5.32-5.32c1.12,1.12,2.46,1.75,4.01,1.87s2.88-.36,3.98-1.45c1.1-1.1,1.58-2.42,1.45-3.98-.13-1.55-.75-2.89-1.87-4.01l5.32-5.32c.77-.77,1.7-1.16,2.8-1.16,1.1,0,2.03.39,2.8,1.16l5.6,5.6c.98-.98,2.15-1.47,3.5-1.47,1.35,0,2.52.49,3.5,1.47s1.47,2.15,1.47,3.5c0,1.35-.49,2.52-1.47,3.5l5.6,5.6c.77.77,1.16,1.7,1.16,2.8,0,1.1-.39,2.03-1.16,2.8l-5.6,5.6c.98.98,1.47,2.15,1.47,3.5,0,1.35-.49,2.52-1.47,3.5-.98.98-2.15,1.47-3.5,1.47s-2.52-.49-3.5-1.47l-5.6,5.6c-.77.77-1.7,1.16-2.8,1.16-1.1,0-2.03-.39-2.8-1.16l-5.32-5.32c1.17-1.17,1.79-2.53,1.87-4.08.08-1.55-.4-2.85-1.45-3.91s-2.35-1.54-3.91-1.45c-1.55.08-2.91.71-4.08,1.87ZM46.25,54l2.98,2.98c2.1-.98,4.09-1.17,5.95-.56,1.87.61,3.33,1.44,4.38,2.49s1.88,2.51,2.49,4.38c.61,1.87.42,3.85-.56,5.95l2.98,2.98,8.41-8.41,2.8,2.8c.19.19.42.28.7.28s.51-.09.7-.28.28-.42.28-.7-.09-.51-.28-.7l-2.8-2.8,8.41-8.41-8.41-8.41,2.8-2.8c.19-.19.28-.42.28-.7s-.09-.51-.28-.7-.42-.28-.7-.28-.51.09-.7.28l-2.8,2.8-8.41-8.41-3.08,3.08c.79,1.73,1.03,3.53.7,5.39-.33,1.87-1.17,3.48-2.52,4.83s-2.93,2.16-4.8,2.49-3.68.11-5.43-.67l-3.08,3.08Z" fill="url(#b)"/>
</svg>